<svg width="95" height="40" viewBox="0 0 95 40" fill="none" xmlns="http://www.w3.org/2000/svg">
<path d="M76.3497 2.42063C73.7824 2.42063 71.2897 2.968 68.9212 4.00359C66.3531 3.34102 63.6677 3.68835 61.3582 4.98602C59.5422 4.25697 56.9342 3.42839 53.7788 2.9966C52.2437 1.11445 49.9509 0 47.5001 0C45.0507 0 42.7576 1.11445 41.2228 2.9966C38.0677 3.42839 35.4598 4.25659 33.6439 4.98583C31.3317 3.68835 28.6442 3.33986 26.0784 4.00359C23.7101 2.968 21.2176 2.42063 18.6505 2.42063C8.36706 2.42063 0 10.7875 0 21.0711C0 31.3543 8.36706 39.7214 18.6503 39.7214C26.9228 39.7214 34.1822 34.2411 36.5089 26.3366L41.7466 22.2814C43.6324 20.8204 44.1873 18.2798 43.2377 16.1952C43.7147 16.014 44.2122 15.8593 44.7163 15.7132C45.6189 16.0486 46.5511 16.2279 47.4999 16.2279C48.4489 16.2279 49.3821 16.0484 50.2843 15.713C50.7887 15.8591 51.2862 16.0138 51.7625 16.1951C50.8125 18.2776 51.3672 20.8191 53.2546 22.2814L58.4915 26.3362C60.8163 34.2402 68.0749 39.7214 76.3495 39.7214C86.6329 39.7214 95 31.3543 95 21.0711C95.0002 10.7875 86.6331 2.42063 76.3497 2.42063ZM33.797 25.0691C31.985 31.9489 25.7562 36.7528 18.6503 36.7528C10.0036 36.7528 2.96877 29.718 2.96877 21.0713C2.96877 12.4246 10.0036 5.38959 18.6503 5.38959C20.9638 5.38959 23.2136 5.89849 25.3372 6.90432C30.8008 9.48885 34.3318 15.0495 34.3318 21.0713C34.332 22.3726 34.1522 23.7196 33.797 25.0691ZM52.4316 9.57331C52.011 10.974 50.9977 12.1623 49.6179 12.7897C48.2481 13.413 46.7579 13.413 45.3821 12.7897C43.5427 11.9532 42.354 10.1182 42.354 8.11483C42.354 7.07827 42.6627 6.0767 43.2483 5.22008C44.2095 3.81108 45.7983 2.96896 47.5001 2.96896C49.2019 2.96896 50.792 3.81127 51.7532 5.22008C52.3375 6.0767 52.6462 7.07846 52.6462 8.11483C52.6462 8.616 52.5717 9.10635 52.4316 9.57331ZM76.3497 36.7528C69.2438 36.7528 63.0165 31.9489 61.2046 25.0691C60.8493 23.7196 60.6682 22.3757 60.6682 21.0713C60.6682 15.0497 64.1994 9.48904 69.6628 6.90432C71.7866 5.8983 74.0362 5.38959 76.3497 5.38959C84.9965 5.38959 92.0314 12.4246 92.0314 21.0713C92.0314 29.718 84.9965 36.7528 76.3497 36.7528Z" fill="#046471"/>
</svg>
