<svg width="50" height="69" viewBox="0 0 50 69" fill="none" xmlns="http://www.w3.org/2000/svg">
<path d="M28.1255 65.6249C28.1255 63.8988 26.7264 62.4998 25.0006 62.4998C23.2748 62.4998 21.8755 63.8988 21.8755 65.6249C21.8755 67.3507 23.2748 68.7498 25.0006 68.7498C26.7264 68.7498 28.1255 67.3507 28.1255 65.6249Z" fill="black"/>
<path fill-rule="evenodd" clip-rule="evenodd" d="M45.7289 38.9753C48.5762 34.7521 50 30.0936 50 25.0001C50 18.0965 47.5594 12.2039 42.6779 7.32236C37.7962 2.44078 31.9035 0 25.0001 0C18.0965 0 12.2039 2.44078 7.32236 7.32236C2.44078 12.2039 0 18.0965 0 25.0001C0 30.0936 1.4237 34.7521 4.2711 38.9753C6.19868 41.8344 8.5558 44.1635 11.3425 45.9627V45.9732C12.6775 46.9806 13.7251 48.2995 14.4851 49.9291C15.2451 51.5589 15.625 53.3011 15.625 55.1563C15.625 55.3247 15.6217 55.4931 15.615 55.6614C15.6084 55.8298 15.5984 55.9976 15.585 56.1654H15.625V56.25H34.375V55.1563C34.375 53.2732 34.7656 51.5082 35.5472 49.8608C36.3288 48.2129 37.4033 46.8891 38.7707 45.8892C41.5081 44.1004 43.8273 41.7958 45.7289 38.9753Z" fill="url(#paint0_radial_131_1139)"/>
<path d="M15.624 59.3754C15.624 62.8273 18.4223 65.6254 21.8741 65.6254H28.1239C31.5758 65.6254 34.374 62.8273 34.374 59.3754V56.2505H15.624V59.3754Z" fill="url(#paint1_radial_131_1139)"/>
<path d="M29.6884 59.3755H20.3135C19.4505 59.3755 18.751 60.075 18.751 60.9378C18.751 61.8009 19.4505 62.5004 20.3135 62.5004H29.6884C30.5514 62.5004 31.2509 61.8009 31.2509 60.9378C31.2509 60.075 30.5514 59.3755 29.6884 59.3755Z" fill="black" fill-opacity="0.2"/>
<path fill-rule="evenodd" clip-rule="evenodd" d="M18.3699 18.3709C20.2005 16.5403 22.4102 15.625 24.999 15.625C25.8621 15.625 26.5985 15.3199 27.2087 14.7097C27.8189 14.0995 28.1242 13.3629 28.1242 12.5C28.1242 11.6371 27.8189 10.9005 27.2087 10.2903C26.5985 9.6801 25.8621 9.375 24.999 9.375C20.6843 9.375 17.0015 10.9005 13.9505 13.9515C10.8995 17.0024 9.37402 20.6853 9.37402 25.0001C9.37402 25.8629 9.67912 26.5996 10.2893 27.2097C10.8995 27.8199 11.6361 28.125 12.499 28.125C13.362 28.125 14.0985 27.8199 14.7088 27.2097C15.319 26.5996 15.624 25.8629 15.624 25.0001C15.624 22.4112 16.5393 20.2015 18.3699 18.3709Z" fill="white"/>
<defs>
<radialGradient id="paint0_radial_131_1139" cx="0" cy="0" r="1" gradientUnits="userSpaceOnUse" gradientTransform="translate(16.6413 15.4665) rotate(56.4705) scale(42.1739 37.4879)">
<stop stop-color="#6AC0F2"/>
<stop offset="0.457142" stop-color="#047A9E"/>
<stop offset="1" stop-color="#004466"/>
</radialGradient>
<radialGradient id="paint1_radial_131_1139" cx="0" cy="0" r="1" gradientUnits="userSpaceOnUse" gradientTransform="translate(9.51059 53.3383) rotate(38.4256) scale(19.7704 39.5407)">
<stop stop-color="#EFFCFF"/>
<stop offset="0.999999" stop-color="#A5F2FF"/>
</radialGradient>
</defs>
</svg>
